<svg xmlns="http://www.w3.org/2000/svg" viewBox="0 0 244.85 277.3"><defs><style>.cls-1,.cls-2,.cls-3{fill-rule:evenodd;}.cls-2{fill:#fff;}.cls-3{fill:#2b59ff;}</style></defs><title>logo_hive</title><g id="Layer_2" data-name="Layer 2"><g id="OBJECTS"><path class="cls-1" d="M52.46,84.46l62.12-37.34A40.79,40.79,0,0,1,170.39,61l68.68,114.26a40.79,40.79,0,0,1-13.91,55.82L163,268.44a40.79,40.79,0,0,1-55.82-13.91L38.55,140.28A40.79,40.79,0,0,1,52.46,84.46Z"/><path class="cls-2" d="M158.83,46.34l61.32,35.13c18.93,10.84,23.43,35.06,12.6,55.29L168.23,257.22c-6,11.22-20,18.23-32.44,19.77-10,1.24-19.15-1.1-30.77-7.76L43.7,234.1c-18.93-10.84-24.6-35.72-12.6-55.29L102.6,62.2C114.6,42.64,139.91,35.5,158.83,46.34Z"/><path class="cls-3" d="M159.13,46.34l63.39,35.13a40.79,40.79,0,0,1,15.86,55.29L173.77,253.37a40.79,40.79,0,0,1-55.29,15.86L55.09,234.1a40.79,40.79,0,0,1-15.86-55.29L103.84,62.2A40.79,40.79,0,0,1,159.13,46.34Z"/><polygon class="cls-2" points="204.88 206.63 171.81 256.59 197.63 210.16 204.88 206.63"/><path class="cls-2" d="M171.75,95.7a8.87,8.87,0,1,0-8.87-8.87A8.89,8.89,0,0,0,171.75,95.7Z"/><path class="cls-1" d="M154.75,44.25c.62-2.18,1.5-5.16,2.2-7q1.23-3.14,2.82-6.29c5.93-11.74,14.44-20.82,23.41-26,9.32-5.4,19.2-6.67,27.42-2.52S223.65,15.32,224.84,26c1.14,10.3-1.12,22.54-7.05,34.27-5.43,10.76-13,19.29-21.18,24.63-8.51,5.59-17.66,7.75-25.67,5.45a2.73,2.73,0,1,1,1.49-5.25c6.44,1.84,14,0,21.19-4.75,7.37-4.84,14.31-12.65,19.31-22.54,5.44-10.77,7.53-21.91,6.5-31.22-1-8.9-4.82-16-11.28-19.3s-14.48-2.12-22.23,2.37c-8.1,4.69-15.83,13-21.28,23.75q-1.46,2.88-2.61,5.83-.44,1.12-.83,2.24c-.31.89-1,3.39-1.46,5.17l-.61-.34A40.62,40.62,0,0,0,154.75,44.25Z"/><path class="cls-2" d="M169.88,91.13c15.71,1.07,27.94-4.5,38.29-16.37,8.29-9.51,11.66-18.16,15.18-29.45-2.89,16.17-9.62,28.82-21.2,38.37C192,92,182.39,94.81,169.37,94.17Z"/><path class="cls-1" d="M44.41,202.15c-34.21,5-63,12.45-19,18.91s99.24,19.81,121.64,10.4L236.19,194c7.49-3.14,6.13-7-1.51-8.56-11.45-2.34-24.66-4.74-26.81-4.86C207.87,180.59,52,196.11,44.41,202.15Z"/><path class="cls-1" d="M143.17,171.5l-15.68-.94c-7.79-.47-14.79,11-15.64,25.59s4.76,26.82,12.55,27.29l15.68.94c7.79.47,14.79-11,15.64-25.59S151,172,143.17,171.5Z"/><path class="cls-1" d="M220.27,159.51l-8.6-.52c-4.27-.26-8.11,7.77-8.58,17.94s2.61,18.61,6.88,18.87l8.6.52c4.27.26,8.11-7.77,8.58-17.94S224.53,159.77,220.27,159.51Z"/><path class="cls-1" d="M47.94,177.38l-8.6-1.88c-4.27-.94-8.11,6.48-8.58,16.57s2.61,19,6.88,20l8.6,1.88c4.27.94,8.11-6.48,8.58-16.57S52.21,178.31,47.94,177.38Z"/><path class="cls-2" d="M1.34,188.6c-.42-4.81-.59-10.77.6-15.12a24.48,24.48,0,0,1,4.72-9,36.7,36.7,0,0,1,2-8.47,18,18,0,0,1,5.64-8.42A21.53,21.53,0,0,1,19.33,145c2.21-.88,4.45-1.67,6.69-2.45,6-2.07,12-4,18-5.87q11.76-3.68,23.57-7.17c21.18-17.36,36-23.79,64-24.09,21.6-.23,51.44,1.5,70.08,13.21a73.24,73.24,0,0,1,15.57,12.75,27.3,27.3,0,0,0,4.41,3.76c1.77,1.28,3.6,2.46,5.48,3.58,1.05.63,2.13,1.28,3.24,1.81,4.19,2,5.14,6.34,5.77,10.47.49,3.17.78,6.37,1,9.57.35,4.13.12,8.33.6,12.5,1,9-3.37,12.1-10.51,12.26l-1.58-25.51v-5.82L20.37,169.12c-7.37-1.67-8.23,30.48-9.52,31.77C.58,200.28-1.36,192.39,1.34,188.6Z"/><path class="cls-1" d="M69.59,133.24C90,116.35,104,109.86,131.68,109.56c20.23-.22,49.92,1.32,67.86,12.58a71,71,0,0,1,14.67,12,31.67,31.67,0,0,0,5.08,4.37c1.86,1.35,3.81,2.61,5.79,3.78,1.13.68,2.38,1.42,3.57,2,2.62,1.25,3.1,4.9,3.49,7.4.47,3.07.76,6.21,1,9.29.24,2.83.44,5.66.63,8.49.1,1.55.16,3.2.34,4.74a10.71,10.71,0,0,1-1.63,7l-.25.36-9.63,7.91V173.63a33.54,33.54,0,0,0-.6-6.82,11.72,11.72,0,0,0-.93-2.78,4.32,4.32,0,0,0-.43.24c-1.76,1.11-3.24,7.49-3.65,9.49a92.49,92.49,0,0,0-1.63,13.08l-.12,2.28L151.61,210.9l.69-6c.8-6.92,1.29-20.18-1.34-26.83-.77-1.93-2.13-4-4.2-4.7-4.64-1.56-9,4.41-10.85,7.63a33.39,33.39,0,0,0-3,7.81,80.53,80.53,0,0,0-2.17,16.59c-.1,2.12-.15,4.25-.29,6.37-.12,1.75-.27,3.86-1.51,5.16-2.83,2.94-13.33,2.7-17.15,2.62-6.35-.13-12.77-.68-19.12-1.38-9.59-1.05-19.18-2.51-28.72-4.15-8.57-1.48-52.34-8.93-59-16-2.64-2.8-1.47-6,.66-8.19-.5-4.81-.78-11.34.31-15.34a20.09,20.09,0,0,1,4.79-8.4v0a30.5,30.5,0,0,1,1.8-8.69,14.16,14.16,0,0,1,4.27-6.55,19.07,19.07,0,0,1,4.1-2c2.14-.85,4.33-1.63,6.51-2.38,5.93-2,11.92-4,17.92-5.83Q57.4,136.84,69.59,133.24Z"/><path class="cls-3" d="M71.45,136.5C59.89,139.93,22.51,151.14,19,153.78s-4.75,11-4.75,12.54v1.58a15.68,15.68,0,0,0-4.91,7.78c-1.38,5.07,0,15.84,0,15.84s-3.56,2.4-1.9,4.16,11.72,7,56.86,14.83,60.35,5.53,61.93,3.88-.79-22.22,6.49-35.25,17.74-11.76,21.54-2.19,1.58,28.6,1.58,28.6l55.91-19.12s-1.17-9.65.5-17.69c.78-3.75,2.92-8.08,4.73-9.22,3.47-2.2,8.46,0,9.83,3.32,2.61,6.35,1.95,10.68,2,16.88l.69-.7a7.18,7.18,0,0,0,1-4.65c-.32-2.75-1.38-26-3.29-26.89s-11.4-6.23-15.68-11.08a71.25,71.25,0,0,0-21.89-15.63c-13.62-6.2-43.64-7.79-57.76-7.64C105.21,113.44,92.06,119.41,71.45,136.5Z"/><path class="cls-3" d="M25.27,162.7c-.39.42-.84,2.93-.87,6a2.86,2.86,0,0,0,2.26,2.78c11.72,3.14,33.51,5.94,47.15,7.15,2.42.21,4.78.69,5.92-1.74s1.23-4.47-.19-5.85c-1-1-18-3-32-5-12.4-1.73-22.1-3.46-22.23-3.32ZM24,172.29c0-.27,10.47,4.28,25.45,5.71,6.08.58,18.17,2.72,26.08,2.17,2.7-.18,2.69-.38.76,2-4.66,5.72-9.65,6-20.64,4.89-11.86-1.22-19.76-3-26.45-5.46C26.18,180.49,24.51,176.14,24,172.29Z"/><path class="cls-3" d="M8.91,178.33a72.36,72.36,0,0,0,.45,13.2s-3.56,2.4-1.9,4.16,11.72,7,56.86,14.83,60.35,5.53,61.93,3.88-.79-22.22,6.49-35.25,17.74-11.76,21.54-2.19,1.58,28.6,1.58,28.6l55.91-19.12s-.6-21.84,5.23-25.25,8.42,1.11,9.83,6.32c1.65,6.07.75,13.71.9,13.54l1.78-2a7.18,7.18,0,0,0,1-4.65c-.25-2.19-1-17.37-2.23-23.92a23.51,23.51,0,0,1-1,3.37c-1.27,3.25-19.32,4.54-19.32,4.54L154.81,170.7s-3.64-5.92-10.61-5.23-11.88,11.16-16,19c-3.24,6.17-12.09,9.74-17.71,10.54,5.81,4.22,10.81,16.52,7.89,17.26s-20.59-.76-22-2.43-3.33-13-4.28-13.4-14.89-2-14.89-2a100.92,100.92,0,0,1,10.55-1.74c-7.13.12-13.57.8-14.5,1.29-1.9,1-9.82-.59-9.82-.59s-40.07-5.74-42.13-7.29S11.61,179.41,8.91,178.33Z"/><path class="cls-1" d="M9.13,176.73c-1,5.37-.4,14.09-.4,14.09.21.89,2.13,1.77,3.4,2.06s2.66.67,3.06-.32a32.24,32.24,0,0,0,1.66-7.24C17.16,182.18,16.93,181.37,9.13,176.73Z"/><path class="cls-1" d="M19,153.78c-3.48,2.64-4.75,11-4.75,12.54v1.58l-.2.16a45.23,45.23,0,0,0,6.08,3.63.85.85,0,0,0,1.15-.57,85.46,85.46,0,0,0,.05-8.65C21.36,161.89,20,153,19,153.78Z"/><path class="cls-1" d="M105.88,116.33C94,119.69,84.14,126,71.5,136.46L156.15,144s9.89-23.92,9.19-24.95S124,116.87,105.88,116.33Z"/><path class="cls-1" d="M79.41,129.5c-3.72-2.36-9.11-1.82-10.93,4.49S74.34,135.21,79.41,129.5Z"/><path class="cls-1" d="M95.17,168.22c-7,4.65-15.52,14.27-8.08,13.77s28.83-1.27,32.79-5.31,9.5-12.73,5.86-13.43S102.77,165.83,95.17,168.22Z"/><path class="cls-1" d="M24.37,161.26c-.41.42-.88,2.93-.9,6A2.89,2.89,0,0,0,25.82,170C38,173.18,60.73,176,74.93,177.18c2.52.21,5,.69,6.16-1.74s1.28-4.47-.19-5.85c-1.06-1-18.75-3-33.37-5-12.92-1.73-23-3.46-23.16-3.32Zm-.67,10c0-.27,10.28,3.92,25.89,5.35,6.33.58,18.93,2.72,27.17,2.17,2.81-.18,2.8-.38.79,2-4.86,5.72-10.05,6-21.5,4.89-12.36-1.22-20.27-3.26-27.24-5.7C25.63,178.8,24.21,175.06,23.7,171.21Z"/><path class="cls-1" d="M74,194.43c11.25-2.49,26.77-3.62,32.79.23s11.4,16.84,8.39,17.61-20.59-.76-22-2.43-3.33-13-4.28-13.4S74,194.43,74,194.43Z"/><path class="cls-1" d="M103.65,199.22c-4.76-.21-6.68-.54-10.79-.67-4.65-.15-11.1-.05-9.16.74a53,53,0,0,0,8.59,1.5C98.14,201.41,103.43,201.12,103.65,199.22Z"/><path class="cls-1" d="M106.66,204.95c-10.14-.45-23.6-1.42-20,.07S106.34,207.78,106.66,204.95Z"/><path class="cls-1" d="M18.28,195c3.8-4.52,4.12-7.36,9.5-6.71S68,195,68,195a17.3,17.3,0,0,1,8.08,6.19l3.8,5S57.55,206.43,18.28,195Z"/><path class="cls-1" d="M161.7,192.1,203,178l-5.23,7.76-36.43,12.54Z"/><path class="cls-1" d="M228.48,150.78c-13.39-4.25-60.7,4.48-92.41,11.32l-1.45.18c14.74-6.2,74.72-15.35,88.81-16.9,1.79,1.06,3.22,1.83,3.84,2.13.28.13.55.77.79,1.75Z"/><path class="cls-1" d="M169.82,125.3c-2.91,7.63-6.08,20-5.28,20.09s41.66-6.2,42.29-7.12c1.36-2-7.91-8.66-13-11.58a57.82,57.82,0,0,0-20.24-6.79C171.55,119.57,171,122.31,169.82,125.3Z"/><path class="cls-1" d="M172.94,135.44c-2.06.19-4.28,2.28-4.28,8,0,1,0,1.84,0,2.54.26,7.37,6.74,6.33,6.28-.57,0,0,10.16-.33,11.5-1.6.68-.64,1.31-1.47-1-3.93A15.72,15.72,0,0,0,172.94,135.44Z"/><polygon class="cls-1" points="161.66 189.59 210.64 174.62 200.27 181.4 161.34 197.89 161.66 189.59"/><path class="cls-1" d="M27.8,150.19l-1,.87c-2.75,3.22-9.33,9-2.08,10,10.39,1.49,29.26,4.26,43.67,6.18,8.13,1.09,13.43,2.4,18.44,1.86,4.32-.46,17.15-4.21,30.77-8.54,15.69-5,32.36-10.72,38.24-13.08,4.59-1.84,1.16-3.12-3.89-4l3.42-.79s7.69,2.16,3.78,5.26c-1.35,1.07-21.91,8.29-40.92,14.34-13.71,4.36-26.66,8.14-31.1,8.61-5.74.61-10.14-.21-19.52-1.57-13.72-2-33.23-5.08-43-6.49-8.83-1.27-4-7.21-.65-11.26C25,151.17,26.36,150.69,27.8,150.19Z"/><path class="cls-2" d="M144,177.6c-2.6-.16-5.12,1.91-7.1,5.37a33.49,33.49,0,0,0-3.81,14.5q-.06,1.06-.05,2.2a31.64,31.64,0,0,0,2.57,13.19c1.52,3.22,3.6,5.3,5.93,5.56l.24,0c2.6.16,5.12-1.91,7.1-5.37a33.47,33.47,0,0,0,3.81-14.5q.06-1.07.06-2.2a31.65,31.65,0,0,0-2.57-13.19c-1.52-3.22-3.6-5.3-5.93-5.56l-.24,0ZM135.3,182c2.3-4,5.37-6.41,8.67-6.21l.33,0c3,.34,5.65,2.83,7.46,6.66a33.49,33.49,0,0,1,2.75,14q0,1.08-.06,2.29a35.23,35.23,0,0,1-4,15.26c-2.3,4-5.37,6.41-8.67,6.21l-.33,0c-3-.34-5.65-2.83-7.46-6.66a33.5,33.5,0,0,1-2.75-14q0-1.09.06-2.29A35.21,35.21,0,0,1,135.3,182Z"/><path class="cls-2" d="M143.63,192.52c-.67,0-1.35.48-1.91,1.34a8.59,8.59,0,0,0-1.19,4.07q0,.28,0,.63a8,8,0,0,0,.78,3.65,2.23,2.23,0,0,0,1.51,1.35h.07c.67,0,1.35-.48,1.91-1.34a8.58,8.58,0,0,0,1.19-4.07c0-.19,0-.4,0-.63a8,8,0,0,0-.78-3.65,2.23,2.23,0,0,0-1.51-1.35Zm-3.43.31a3.93,3.93,0,0,1,3.43-2.11l.17,0a4.05,4.05,0,0,1,3,2.38,9.9,9.9,0,0,1,1,4.52c0,.21,0,.46,0,.72a10.31,10.31,0,0,1-1.46,4.89,3.93,3.93,0,0,1-3.43,2.11l-.17,0a4,4,0,0,1-3-2.38,9.89,9.89,0,0,1-1-4.52c0-.21,0-.46,0-.72A10.33,10.33,0,0,1,140.2,192.83Z"/><path class="cls-2" d="M141.72,193.63c-1.13-.07-2.14,1.74-2.25,4s.7,4.22,1.83,4.29,2.14-1.74,2.25-4S142.85,193.7,141.72,193.63Z"/><path class="cls-2" d="M141.72,194.53c-.21,0-.47.26-.72.71a6,6,0,0,0-.64,2.54c0,.1,0,.23,0,.39a5.55,5.55,0,0,0,.42,2.27c.17.38.36.61.51.63h0s0,0,0,0c.21,0,.47-.26.72-.71a6,6,0,0,0,.64-2.54c0-.1,0-.23,0-.39a5.57,5.57,0,0,0-.42-2.27c-.18-.38-.36-.61-.52-.63h0s0,0,0,0Zm-2.3-.24a2.56,2.56,0,0,1,2.3-1.56h.1a2.7,2.7,0,0,1,2,1.75,7.42,7.42,0,0,1,.6,3c0,.13,0,.29,0,.48a7.7,7.7,0,0,1-.85,3.28,2.56,2.56,0,0,1-2.29,1.56h-.1a2.7,2.7,0,0,1-2-1.75,7.42,7.42,0,0,1-.6-3c0-.13,0-.29,0-.48a7.7,7.7,0,0,1,.85-3.28Zm1.87,6.77Zm.43-6.54"/><path class="cls-2" d="M220.7,163.74c-1.43-.09-2.81,1.37-3.89,3.8a28.55,28.55,0,0,0-2.09,10.12q0,.74,0,1.53a27,27,0,0,0,1.41,9.15c.83,2.23,2,3.65,3.25,3.81h.13c1.43.09,2.81-1.37,3.89-3.8a28.58,28.58,0,0,0,2.09-10.12q0-.74,0-1.53a27,27,0,0,0-1.41-9.15c-.83-2.23-2-3.65-3.25-3.81Zm-4.75,3.15c1.26-2.82,2.94-4.5,4.75-4.39l.18,0c1.67.21,3.1,1.92,4.09,4.57a28.57,28.57,0,0,1,1.51,9.7c0,.5,0,1,0,1.59A30,30,0,0,1,224.24,189c-1.26,2.82-2.94,4.5-4.75,4.39l-.18,0c-1.67-.21-3.1-1.92-4.09-4.57a28.56,28.56,0,0,1-1.51-9.7c0-.5,0-1,0-1.59A30,30,0,0,1,215.95,166.89Z"/><path class="cls-2" d="M220.52,174.12c-.37,0-.74.34-1,1a7.25,7.25,0,0,0-.65,2.84c0,.13,0,.28,0,.44a6.79,6.79,0,0,0,.43,2.54c.22.54.51.89.83.93h0c.37,0,.74-.34,1-1a7.24,7.24,0,0,0,.66-2.84c0-.13,0-.28,0-.44a6.82,6.82,0,0,0-.43-2.54c-.22-.54-.51-.89-.83-.93Zm-1.88.25c.49-1,1.15-1.54,1.88-1.5h.09c.68.09,1.25.7,1.64,1.63a8.38,8.38,0,0,1,.55,3.13q0,.22,0,.5a8.72,8.72,0,0,1-.8,3.42c-.49,1-1.15,1.54-1.88,1.5H220c-.68-.09-1.25-.7-1.64-1.63a8.39,8.39,0,0,1-.55-3.13c0-.15,0-.32,0-.5A8.7,8.7,0,0,1,218.64,174.37Z"/><path class="cls-2" d="M219.47,174.92c-.62,0-1.17,1.23-1.24,2.83s.38,2.93,1,3,1.17-1.23,1.24-2.83S220.09,175,219.47,174.92Z"/><path class="cls-2" d="M219.47,175.54c-.11,0-.25.18-.39.5a5.1,5.1,0,0,0-.35,1.77c0,.07,0,.16,0,.27a4.75,4.75,0,0,0,.23,1.57c.1.26.2.42.28.44h0s0,0,0,0,.26-.18.39-.5a5.12,5.12,0,0,0,.35-1.77c0-.07,0-.16,0-.27a4.75,4.75,0,0,0-.23-1.57c-.1-.26-.2-.42-.28-.43h0s0,0,0,0Zm-1.26-.14c.31-.71.75-1.13,1.26-1.1h.05c.48.06.87.51,1.12,1.2a6.34,6.34,0,0,1,.33,2.11c0,.09,0,.2,0,.34a6.57,6.57,0,0,1-.47,2.29c-.31.71-.75,1.14-1.26,1.1h-.05c-.48-.06-.87-.51-1.12-1.2a6.32,6.32,0,0,1-.33-2.11c0-.09,0-.2,0-.33a6.58,6.58,0,0,1,.47-2.29Zm1,4.69Zm.23-4.55"/><path class="cls-1" d="M8.61,176.16a57.06,57.06,0,0,1,14.31,10.63c-6.22-1-8.64-2.05-14.5-3.79Z"/><path class="cls-1" d="M9.63,185c2.19.75,3.1.88,5,1.57,2.14.77,5.08,2.06,4.13,2.25a16.23,16.23,0,0,1-4-.57C12,187.6,9.59,186.4,9.63,185Z"/><path class="cls-1" d="M8.94,188c4.67,1.59,10.9,3.45,9.12,3.81S8.87,190.06,8.94,188Z"/><path class="cls-2" d="M124.25,167.46c-8.18.7-23.49.29-29.92,5.18a92.1,92.1,0,0,0-8.09,7.68,38.23,38.23,0,0,1,7.32-8.6c6.57-5.58,21.82-5.6,30.38-6.57Z"/><path class="cls-2" d="M123.31,165.19c4.44-.35-3.5,9.22-5,10.45-1.16,1-4.56,1.46-6.18,1.74l-2.69.48.47-2.46c0-.15.44-.22,1-.32,4.75-.8,5.13-6.12,2.25-6.8l-2.72-.34.28-1.1Z"/><path class="cls-2" d="M16.83,156.59a8.31,8.31,0,0,1,2,4.23c.42,2.12.8,4.53,1.3,8.1,0-2.74,0-3.32-.13-6-.25-3.72-.84-6.12-2.19-7.87A11.09,11.09,0,0,0,16.83,156.59Z"/><path class="cls-2" d="M14.27,166.4l0,0a18.24,18.24,0,0,0,2.8,2,8.58,8.58,0,0,1,0-2c0-.15-.22-.36-.53-.63-2.52-2.21-.27-9.29,2.18-5.57a13.74,13.74,0,0,0,.95,1.25l-.37-3-2.42-1.94a27.37,27.37,0,0,0-2.63,9.85Z"/><path class="cls-2" d="M170.93,136.32a19.84,19.84,0,0,1,8.62,2.08c2.65,1.17,3.82,2.66,4.34,4.1a7.2,7.2,0,0,1,.39,2,5.25,5.25,0,0,0,2.21-.75A1.49,1.49,0,0,0,187,142a6.71,6.71,0,0,0-1.48-2.14,15.72,15.72,0,0,0-12.57-4.42A3.58,3.58,0,0,0,170.93,136.32Z"/><path class="cls-2" d="M98.61,134.61c-8.44-2.06-3.78-8,13.93-16.75-.79,0-10.8-.22-11.69.11-8.16,3-15.63,7.65-24.18,14.32a31.71,31.71,0,0,1-3.9,3.12l-1.27,1,65.92,5.88C125.57,140.63,107,136.66,98.61,134.61Z"/><path class="cls-1" d="M67.62,134.74c26.85,1.52,57.44,4.09,84,8.2a38.15,38.15,0,0,1,6.36,1.3l-1.18-.09c-30-2.7-59.06-5.6-89.32-6.89a1.26,1.26,0,1,1,.12-2.51Z"/><path class="cls-2" d="M150.48,147.2c-5.38,2.06-58.84,19.72-66.76,19.72-4.29,0-42.44-4.8-58.74-7.43-2.45-.39-3.19-1.71-3.12-2.39-1,1.88-.67,3.48,2.82,4,5.69.82,13.92,2,22.57,3.25l6.29.89c5.11.72,10.19,1.43,14.81,2,8.13,1.09,13.43,2.4,18.44,1.86,4.32-.46,17.15-4.21,30.77-8.54,15.69-5,32.36-10.72,38.24-13.08,3.61-1.44,2.26-2.54-.92-3.38C155.09,144.88,153.78,145.94,150.48,147.2Z"/><path class="cls-2" d="M3.73,191.91c-2.17,4.42,1.12,7.28,5.71,9.18,9.15,3.78,23.24,6.39,37.74,9,17.22,3.14,35.13,6.14,47.45,8.46l-2.82-.21c-23.15-2.43-54.87-7-77.67-12.93C5.24,203.15-3,199,1.07,190.34Z"/><polygon class="cls-2" points="156.11 209.09 209.2 191.97 154.97 212.72 156.11 209.09"/><path class="cls-2" d="M153.48,168.81c11.91-3.43,54-12.39,64.17-11.95-22.77,5.26-43,10.43-61.5,16.59Z"/></g></g></svg>